# xmcd
# 
# Track frame offsets:
#     150
#     15200
#     29387
#     38537
#     47675
#     60487
#     63125
#     78162
#     86587
#     98652
#     107050
#     119975
#     140650
#     150487
#     162700
#     164250
#     166707
#     168312
#     169587
#     170100
#     171825
#     174037
#     180462
#     194912
#     205275
#     208387
#     220125
# 
# Disc length: 3087
# 
# Revision: 3
# Processed by: cddbd v1.5.2PL0 Copyright (c) Steve Scherf et al.
# Submitted via: fre:ac v1.0.31
# 
DISCID=6b0c0d1b
DTITLE=所ジョージ - 史上最大全集しょのいち
DYEAR=1984
DGENRE=コミックソング
TTITLE0=組曲 冬の情景
TTITLE1=ギャンブル狂騒曲
TTITLE2=畳
TTITLE3=ちり紙
TTITLE4=花火
TTITLE5=けさめらの親王むれさのはけ姫に詠む
TTITLE6=春二番
TTITLE7=カッタマリ･ブギ
TTITLE8=一年中クリスマス -セロリ･パセリ-
TTITLE9=大きな海のその下で
TTITLE10=嗚呼！花のボンクラ戦闘隊
TTITLE11=決定版フォーク大全集
TTITLE12=お座敷エレジー
TTITLE13=寿司屋
TTITLE14=脳ミソ
TTITLE15=シュウマイ
TTITLE16=ブンメイ
TTITLE17=女嫌い
TTITLE18=スブタ
TTITLE19=ムシ
TTITLE20=女はヤダね
TTITLE21=純情
TTITLE22=騒いでいようぜ
TTITLE23=正男という名で小学生
TTITLE24=ひこうき
TTITLE25=しょんべん横丁ブルース
TTITLE26=まったくやる気がございません
EXTD=YEAR: 1984
EXTT0=
EXTT1=
EXTT2=
EXTT3=
EXTT4=
EXTT5=
EXTT6=
EXTT7=
EXTT8=
EXTT9=
EXTT10=
EXTT11=
EXTT12=
EXTT13=
EXTT14=
EXTT15=
EXTT16=
EXTT17=
EXTT18=
EXTT19=
EXTT20=
EXTT21=
EXTT22=
EXTT23=
EXTT24=
EXTT25=
EXTT26=
PLAYORDER=
